<svg width="32" height="32" viewBox="0 0 29 20" fill="none" xmlns="http://www.w3.org/2000/svg">
<path d="M7.93876 13.9155L7.93844 13.9176C7.82761 14.648 7.72116 15.3387 7.62434 15.9668C7.53042 16.5762 7.44555 17.1267 7.37452 17.598C7.30205 18.0787 7.24281 18.4843 7.20162 18.7952C7.19337 18.8574 7.18562 18.9174 7.17851 18.9747H0.943937C1.12502 17.8092 1.53451 15.1928 1.93445 12.6374C2.32265 10.157 2.70184 7.73414 2.8544 6.75164H3.59825C3.60604 6.75164 3.61382 6.75146 3.6216 6.75109C4.08384 6.72948 4.53369 6.5946 4.93156 6.35831C5.31906 6.12819 5.6457 5.80875 5.88435 5.42685C5.97756 5.30966 6.05317 5.17976 6.10898 5.04128C6.12304 5.22586 6.16656 5.37481 6.20595 5.4733C6.21239 5.4894 6.21966 5.50515 6.22774 5.52049C6.42838 5.9017 6.73181 6.21908 7.10362 6.43665C7.47334 6.65299 7.89597 6.76204 8.32411 6.75164H9.05729L7.93876 13.9155ZM7.15402 3.20119C6.64762 3.55424 6.35716 3.94191 6.21494 4.32067C6.21231 4.29191 6.20887 4.26319 6.20463 4.23455C6.17252 4.01782 6.09485 3.81036 5.97672 3.62584C5.86025 3.44391 5.70706 3.28835 5.527 3.16912C5.50902 3.1565 5.49372 3.14591 5.48008 3.13647C5.44892 3.11491 5.42647 3.09938 5.40079 3.07952C5.36909 3.05502 5.35505 3.04035 5.34906 3.03297C5.34876 3.02819 5.3487 3.01964 5.35017 3.0065C5.35357 2.99947 5.36547 2.97622 5.39774 2.93844C5.44837 2.87916 5.53044 2.80686 5.64535 2.73648C5.87501 2.59583 6.19892 2.48545 6.56947 2.48545C6.5799 2.48545 6.59033 2.48512 6.60074 2.48447C6.94498 2.4629 7.28765 2.54099 7.58797 2.70865C7.58949 2.7119 7.59075 2.71527 7.59175 2.71875C7.59402 2.72662 7.59484 2.73481 7.59421 2.74291C7.51715 2.92558 7.37962 3.07664 7.20423 3.17042C7.1869 3.17968 7.17014 3.18996 7.15402 3.20119Z" fill="#FCFCFF" stroke="#FCFCFF" stroke-linecap="round" stroke-linejoin="round"/>
<path d="M10.227 5.7518L11.061 0.5H17.9867C21.3054 0.5 24.0183 1.2281 25.7528 2.76781C27.4576 4.28118 28.3118 6.66588 27.7378 10.222C26.8152 15.8876 22.2731 19.5 16.6414 19.5H15.8518L16.6925 14.5341C17.7946 14.4615 18.8329 14.1508 19.6753 13.5419C20.6335 12.8493 21.2985 11.7987 21.5233 10.383C21.7741 8.89775 21.5456 7.70769 20.777 6.89552C20.0204 6.09615 18.8488 5.78057 17.4831 5.78057H15.555C15.5476 5.78057 15.5401 5.78074 15.5327 5.78107C15.3915 5.78738 15.2513 5.75488 15.1273 5.68709C15.0201 5.62851 14.9286 5.54552 14.8599 5.44516C14.8604 5.43481 14.8626 5.41983 14.8688 5.40043C14.887 5.34429 14.9583 5.19494 15.2463 4.99396C15.7329 4.69163 16.1036 4.2342 16.2986 3.69526C16.309 3.66636 16.3168 3.63656 16.3218 3.60623C16.3667 3.3327 16.3421 3.05225 16.2501 2.79075C16.1581 2.52925 16.0018 2.29512 15.7955 2.10994C15.7862 2.10162 15.7767 2.09364 15.7668 2.08603C15.2314 1.6733 14.5644 1.46999 13.8906 1.51332C13.3372 1.48349 12.7879 1.62739 12.3199 1.92537C11.8417 2.22985 11.4733 2.67926 11.2686 3.20796C11.2463 3.26554 11.2349 3.32675 11.2349 3.38849V3.52518L11.2352 3.54238C11.245 3.82638 11.3254 4.10345 11.4692 4.34852C11.6131 4.59359 11.8158 4.79891 12.059 4.9459L12.059 4.94592L12.0633 4.94846C12.0945 4.96689 12.1206 4.99278 12.1394 5.02379L12.5672 4.76499L12.1394 5.02379C12.1527 5.04582 12.162 5.06995 12.167 5.09506C12.1599 5.12934 12.1462 5.16202 12.1266 5.19122C11.9899 5.37464 11.8103 5.52178 11.6035 5.6197C11.3944 5.71867 11.1641 5.76428 10.9331 5.75245C10.9246 5.75202 10.9161 5.7518 10.9075 5.7518H10.227Z" fill="#FCFCFF" stroke="#FCFCFF" stroke-linecap="round" stroke-linejoin="round"/>
</svg>
