<svg width="32" height="32" viewBox="0 0 31 30" fill="none" xmlns="http://www.w3.org/2000/svg">
<path d="M30.2083 12.0623H29V12H15.5V18H23.9773C22.7405 21.4928 19.4172 24 15.5 24C10.5297 24 6.5 19.9702 6.5 15C6.5 10.0297 10.5297 6 15.5 6C17.7943 6 19.8815 6.8655 21.4708 8.27925L25.7135 4.0365C23.0345 1.53975 19.451 0 15.5 0C7.21625 0 0.5 6.71625 0.5 15C0.5 23.2838 7.21625 30 15.5 30C23.7838 30 30.5 23.2838 30.5 15C30.5 13.9943 30.3965 13.0125 30.2083 12.0623Z" fill="#FFC107"/>
<path d="M2.22949 8.01825L7.15774 11.6325C8.49124 8.331 11.7207 6 15.5 6C17.7942 6 19.8815 6.8655 21.4707 8.27925L25.7135 4.0365C23.0345 1.53975 19.451 0 15.5 0C9.73849 0 4.74199 3.25275 2.22949 8.01825Z" fill="#FF3D00"/>
<path d="M15.5 30C19.3745 30 22.895 28.5173 25.5567 26.106L20.9142 22.1775C19.4082 23.3183 17.5362 24 15.5 24C11.5985 24 8.28574 21.5123 7.03774 18.0405L2.14624 21.8093C4.62874 26.667 9.67024 30 15.5 30Z" fill="#4CAF50"/>
<path d="M30.2083 12.0623H29V12H15.5V18H23.9773C23.3833 19.6778 22.304 21.1245 20.912 22.1782C20.9127 22.1775 20.9135 22.1775 20.9142 22.1768L25.5568 26.1052C25.2283 26.4037 30.5 22.5 30.5 15C30.5 13.9943 30.3965 13.0125 30.2083 12.0623Z" fill="#1976D2"/>
</svg>
