<svg width="32" height="32" viewBox="0 0 31 30" fill="none" xmlns="http://www.w3.org/2000/svg">
<path d="M30.6858 15.0929C30.6858 6.75502 23.9251 0 15.5929 0C7.25502 0 0.5 6.75502 0.5 15.0929C0.5 22.6243 6.0174 28.869 13.2346 30V19.4567H9.40199V15.0939H13.2346V11.7668C13.2346 7.9851 15.4844 5.89661 18.9332 5.89661C20.5849 5.89661 22.314 6.19093 22.314 6.19093V9.90473H20.4076C18.536 9.90473 17.9512 11.0697 17.9512 12.263V15.0929H22.1366L21.4641 19.4557H17.9512V29.9991C25.1628 28.868 30.6858 22.6233 30.6858 15.092V15.0929Z" fill="#FCFCFF"/>
</svg>
